<svg title="LandingBg" width="371" height="585" viewBox="0 0 371 585" fill="none" xmlns="http://www.w3.org/2000/svg">
<path d="M335.795 31.017L253.248 0L256.538 22.112L337.953 54.07L335.795 31.017Z" fill="#E9E0C2"/>
<path d="M240.297 32.005L256.537 22.113L337.952 54.071C337.952 54.071 320.939 68.795 319.535 68.461C318.131 68.127 240.297 32.006 240.297 32.006V32.005Z" fill="#A89416"/>
<path d="M240.938 55.969L240.297 32.005L319.536 68.46L322.601 84.42L240.938 55.969Z" fill="#E9E0C2"/>
<path d="M226 60.237L240.938 55.969L322.601 84.42L305.535 96.015L226 60.237Z" fill="#A89416"/>
<path d="M238.999 87.08L226 60.237L305.535 96.015L312.137 119.673L238.999 87.08Z" fill="#E9E0C2"/>
<path d="M370 584C370 558.712 370 507.789 370 480.567C370 344.752 385.85 259 249.281 259C112.712 259 2 369.711 2 506.281C2 533.503 6.411 559.691 14.536 584.186L370 584Z" fill="#F5F0DF"/>
<path d="M44.66 578.46H219.635C219.635 578.46 203.495 567.721 192.113 567.694C180.731 567.666 156.967 573.308 148.311 567.246C139.654 561.184 98.064 562.686 82.811 562.417C67.557 562.148 44.66 578.46 44.66 578.46Z" fill="#D7B882"/>
<path d="M148.29 276.488L120.523 572.88L95.281 574.956L91.213 414.123L100.329 429.147L90.567 388.576L87.568 270.006L108.884 273.884L110.566 292.775L117.929 276.715L148.29 276.488Z" fill="#E05E2B"/>
<path d="M148.29 276.488L156.143 285.934L126.133 571.906L120.523 572.88L148.29 276.488Z" fill="#D92C2A"/>
<path d="M108.884 273.884L112.705 276.957L114.118 285.028L110.566 292.775L108.884 273.884Z" fill="#D92C2A"/>
<path d="M91.213 414.123L96.98 415.226L100.329 429.147L91.213 414.123Z" fill="#D92C2A"/>
<path d="M162.413 399.106L158.807 403.501L30.773 383.765L36.616 380.636L162.413 399.106Z" fill="#D92C2A"/>
<path d="M170.067 377.49L46.704 343.838L1.108 352.63L36.616 380.636L162.413 399.106L163.91 391.324L142.322 381.591L169.082 382.615L170.067 377.49Z" fill="#E05E2B"/>
<path d="M1.108 352.63L0 358.395L30.773 383.765L36.616 380.636L1.108 352.63Z" fill="#D92C2A"/>
<path d="M169.082 382.615L164.945 385.94L150.882 385.45L142.322 381.591L169.082 382.615Z" fill="#D92C2A"/>
<path d="M94.111 357.039C94.087 357.039 94.064 357.036 94.041 357.03L50.938 345.272C50.794 345.233 50.71 345.084 50.749 344.942C50.788 344.797 50.933 344.715 51.079 344.752L94.182 356.51C94.326 356.549 94.41 356.698 94.371 356.84C94.338 356.96 94.229 357.038 94.111 357.038V357.039Z" fill="black"/>
<path d="M91.126 388.909C91.113 388.909 91.101 388.908 91.087 388.906L49.69 382.828C49.544 382.807 49.442 382.67 49.463 382.523C49.485 382.377 49.607 382.274 49.768 382.296L91.165 388.374C91.312 388.395 91.413 388.532 91.392 388.679C91.372 388.813 91.258 388.909 91.126 388.909Z" fill="black"/>
<path d="M135.991 368.463C135.968 368.463 135.944 368.46 135.921 368.454L106.779 360.505C106.635 360.466 106.55 360.317 106.589 360.175C106.628 360.03 106.778 359.947 106.919 359.985L136.062 367.934C136.206 367.973 136.29 368.122 136.251 368.264C136.218 368.384 136.109 368.462 135.991 368.462V368.463Z" fill="black"/>
<path d="M133.493 395.129C133.48 395.129 133.468 395.128 133.454 395.126L102.583 390.593C102.437 390.572 102.335 390.435 102.356 390.288C102.377 390.141 102.504 390.039 102.661 390.061L133.532 394.594C133.678 394.615 133.78 394.752 133.758 394.899C133.739 395.033 133.624 395.129 133.492 395.129H133.493Z" fill="black"/>
<path d="M76.291 300.921L198.065 259L246.47 282.407L214.352 328.042L87.64 341.755L84.852 327.254L105.546 312.874L78.127 310.469L76.291 300.921Z" fill="#E05E2B"/>
<path d="M246.47 282.407L248.535 293.147L219.91 331.854L214.352 328.042L246.47 282.407Z" fill="#D92C2A"/>
<path d="M78.127 310.469L82.923 317.224L97.34 318.577L105.546 312.874L78.127 310.469Z" fill="#D92C2A"/>
<path d="M102.658 292.113C102.547 292.113 102.442 292.044 102.404 291.932C102.355 291.791 102.43 291.638 102.57 291.59L161.293 271.374C161.434 271.325 161.586 271.399 161.635 271.54C161.684 271.681 161.609 271.834 161.469 271.882L102.746 292.098C102.717 292.108 102.687 292.113 102.658 292.113Z" fill="black"/>
<path d="M107.437 339.29C107.3 339.29 107.184 339.188 107.17 339.05C107.154 338.901 107.262 338.77 107.409 338.754L169.179 332.31C169.348 332.29 169.459 332.403 169.475 332.549C169.491 332.697 169.383 332.829 169.236 332.845L107.466 339.289C107.456 339.289 107.446 339.289 107.438 339.289L107.437 339.29Z" fill="black"/>
<path d="M219.91 331.854L91.837 346.653L87.64 341.755L214.352 328.042L219.91 331.854Z" fill="#D92C2A"/>
<path d="M74.224 460.838L161.561 487.961L196.278 472.816L173.242 443.292L82.363 434.42L80.363 443.801L95.206 453.105L75.54 454.661L74.224 460.838Z" fill="#E05E2B"/>
<path d="M196.278 472.816L197.759 465.868L177.228 440.825L173.242 443.292L196.278 472.816Z" fill="#D92C2A"/>
<path d="M75.54 454.661L78.98 450.291L89.32 449.416L95.206 453.105L75.54 454.661Z" fill="#D92C2A"/>
<path d="M135.251 479.974C135.233 479.974 135.215 479.971 135.196 479.965L93.08 466.886C92.984 466.856 92.93 466.753 92.96 466.656C92.989 466.56 93.09 466.506 93.189 466.536L135.305 479.615C135.401 479.645 135.455 479.748 135.425 479.845C135.401 479.923 135.329 479.974 135.251 479.974Z" fill="black"/>
<path d="M140.863 440.541C140.863 440.541 140.851 440.54 140.845 440.54L96.543 436.37C96.442 436.36 96.369 436.271 96.378 436.17C96.388 436.07 96.486 436.012 96.578 436.005L140.88 440.175C140.981 440.185 141.054 440.274 141.045 440.375C141.036 440.47 140.956 440.541 140.862 440.541H140.863Z" fill="black"/>
<path d="M177.228 440.825L85.373 431.25L82.363 434.42L173.242 443.292L177.228 440.825Z" fill="#D92C2A"/>
<path d="M160.63 502.069L151.375 571.345L169.886 572.88L205.225 502.069L188.677 500.947L178.3 514.971L177.228 503.191L160.63 502.069Z" fill="#E05E2B"/>
<path d="M177.228 572.88C177.228 572.88 169.16 574.333 169.886 572.88C170.612 571.427 205.225 502.069 205.225 502.069L208.871 509.361L177.228 572.88Z" fill="#D92C2A"/>
<path d="M177.228 503.191L181.946 504.874L183.171 508.388L178.3 514.971L177.228 503.191Z" fill="#D92C2A"/>
<path d="M120.523 573.064C120.523 573.064 120.511 573.064 120.506 573.064C120.404 573.054 120.331 572.965 120.34 572.865C120.485 571.317 127.078 500.932 127.078 500.932C127.087 500.83 127.199 500.759 127.277 500.766C127.378 500.776 127.452 500.865 127.443 500.965C127.443 500.965 120.849 571.35 120.705 572.898C120.696 572.994 120.616 573.065 120.522 573.065L120.523 573.064Z" fill="black"/>
<path d="M100.329 429.415C100.207 429.415 100.098 429.333 100.067 429.209L92.373 397.231C92.339 397.087 92.428 396.942 92.572 396.907C92.716 396.872 92.86 396.962 92.896 397.106L100.59 429.084C100.624 429.227 100.535 429.373 100.391 429.408C100.37 429.413 100.349 429.415 100.329 429.415Z" fill="black"/>
<path d="M100.329 574.81C100.181 574.81 100.06 574.69 100.06 574.541V480.753C100.06 480.605 100.18 480.484 100.329 480.484C100.478 480.484 100.598 480.604 100.598 480.753V574.541C100.598 574.689 100.478 574.81 100.329 574.81Z" fill="black"/>
<path d="M112.795 512.995C112.647 512.995 112.526 512.875 112.526 512.726V472.816C112.526 472.667 112.646 472.547 112.795 472.547C112.944 472.547 113.064 472.667 113.064 472.816V512.726C113.064 512.875 112.944 512.995 112.795 512.995Z" fill="black"/>
<path d="M117.929 434.688C117.787 434.688 117.669 434.579 117.66 434.436L115.767 403.518C115.758 403.37 115.87 403.243 116.019 403.233H116.036C116.178 403.233 116.296 403.342 116.305 403.485L118.198 434.403C118.207 434.551 118.095 434.678 117.946 434.688H117.929Z" fill="black"/>
<path d="M133.493 367.783C133.485 367.783 133.476 367.783 133.468 367.782C133.32 367.767 133.211 367.637 133.226 367.489L135.724 341.526C135.739 341.378 135.861 341.273 136.017 341.284C136.165 341.299 136.274 341.429 136.259 341.577L133.761 367.54C133.747 367.68 133.63 367.783 133.493 367.783Z" fill="black"/>
<path d="M157.294 572.105C157.28 572.105 157.267 572.104 157.253 572.102C157.106 572.08 157.006 571.942 157.028 571.795L166.815 509.039C166.838 508.893 166.978 508.794 167.122 508.814C167.269 508.837 167.369 508.974 167.347 509.121L157.56 571.877C157.539 572.01 157.425 572.105 157.294 572.105Z" fill="black"/>
<path d="M180.199 544.127C180.168 544.127 180.136 544.122 180.103 544.109C179.964 544.056 179.895 543.902 179.948 543.762L196.027 501.366C196.078 501.227 196.229 501.154 196.374 501.211C196.513 501.264 196.582 501.418 196.529 501.558L180.45 543.954C180.41 544.061 180.307 544.127 180.199 544.127Z" fill="black"/>
<path d="M167.081 558.712C167.058 558.712 167.035 558.709 167.012 558.703C166.868 558.665 166.783 558.517 166.822 558.374L175.798 524.718C175.836 524.576 175.979 524.493 176.127 524.528C176.271 524.566 176.356 524.714 176.317 524.857L167.342 558.513C167.31 558.633 167.2 558.712 167.081 558.712Z" fill="black"/>
<path d="M180.066 452.307C180.066 452.307 180.05 452.307 180.043 452.306L106.825 445.962C106.678 445.949 106.568 445.819 106.581 445.671C106.594 445.524 106.72 445.401 106.872 445.427L180.09 451.771C180.237 451.784 180.347 451.914 180.334 452.062C180.322 452.202 180.205 452.307 180.066 452.307Z" fill="black"/>
<path d="M196.278 473.085C196.263 473.085 196.249 473.085 196.233 473.081L127.216 461.454C127.07 461.43 126.971 461.291 126.996 461.144C127.02 460.999 127.155 460.895 127.306 460.924L196.323 472.551C196.47 472.575 196.568 472.714 196.543 472.861C196.521 472.992 196.407 473.085 196.278 473.085Z" fill="black"/>
<path d="M104.256 464.474C104.237 464.474 104.219 464.472 104.199 464.468L75.483 458.298C75.338 458.267 75.246 458.124 75.277 457.979C75.308 457.834 75.443 457.74 75.596 457.773L104.312 463.943C104.457 463.974 104.549 464.117 104.518 464.262C104.491 464.388 104.379 464.474 104.255 464.474H104.256Z" fill="black"/>
<path d="M128.657 374.724C128.637 374.724 128.618 374.722 128.598 374.718L17.149 349.788C17.004 349.755 16.913 349.611 16.945 349.467C16.978 349.322 17.122 349.237 17.266 349.263L128.715 374.193C128.86 374.226 128.951 374.37 128.919 374.514C128.891 374.639 128.779 374.724 128.656 374.724H128.657Z" fill="black"/>
<path d="M143.458 387.345C143.437 387.345 143.417 387.343 143.396 387.338L72.871 370.51C72.727 370.475 72.638 370.33 72.672 370.186C72.705 370.042 72.844 369.953 72.996 369.987L143.521 386.815C143.666 386.85 143.754 386.995 143.72 387.139C143.691 387.262 143.58 387.345 143.458 387.345Z" fill="black"/>
<path d="M100.329 325.875C100.198 325.875 100.083 325.779 100.063 325.646C100.041 325.5 100.142 325.362 100.289 325.34L229.736 305.859C229.884 305.836 230.02 305.939 230.042 306.085C230.064 306.231 229.963 306.369 229.816 306.391L100.369 325.871C100.355 325.873 100.342 325.874 100.329 325.874V325.875Z" fill="black"/>
<path d="M114.118 299.278C113.994 299.278 113.883 299.193 113.855 299.067C113.824 298.921 113.915 298.779 114.06 298.747L228.787 273.622C228.933 273.591 229.076 273.683 229.107 273.827C229.138 273.973 229.046 274.115 228.902 274.147L114.175 299.272C114.155 299.276 114.136 299.278 114.117 299.278H114.118Z" fill="black"/>
<path d="M105.547 313.143C105.42 313.143 105.307 313.053 105.283 312.924C105.255 312.779 105.351 312.638 105.497 312.61L150.765 304.074C150.906 304.04 151.052 304.141 151.079 304.288C151.107 304.433 151.011 304.574 150.865 304.601L105.597 313.137C105.58 313.141 105.564 313.142 105.547 313.142V313.143Z" fill="black"/>
</svg>
