<svg title="LogoIcon" width="88" height="54" viewBox="0 0 88 54" fill="none" xmlns="http://www.w3.org/2000/svg">
<path d="M36.0296 51.3572V42.0754H37.4581V51.3572H36.0296ZM36.7304 51.3572V50.2357H42.7678V51.3572H36.7304ZM36.7304 47.116V45.9944H42.2827V47.116H36.7304ZM36.7304 43.197V42.0754H42.6466V43.197H36.7304Z" fill="black"/>
<path d="M48.9185 51.3572L46.7218 48.3535L43.9322 44.7826H45.5224L47.5304 47.5285L50.5087 51.3572H48.9185ZM46.8162 47.5285L48.8646 44.7826H50.4009L47.5169 48.4438L46.8162 47.5285ZM47.3822 48.4825L45.172 51.3572H43.6222L46.7083 47.5414L47.3822 48.4825Z" fill="black"/>
<path d="M55.5534 51.4733C54.9065 51.4733 54.3675 51.3272 53.9362 51.035C53.514 50.7342 53.2355 50.3173 53.1007 49.7845L53.2894 49.7587V54H51.8878V44.7826H53.222V46.2909L53.0872 46.2522C53.231 45.7538 53.5364 45.3627 54.0036 45.0791C54.4708 44.7955 55.0189 44.6537 55.6478 44.6537C56.2677 44.6537 56.8022 44.7955 57.2515 45.0791C57.7097 45.3627 58.06 45.7581 58.3026 46.2651C58.5542 46.7722 58.68 47.3652 58.68 48.0441C58.68 48.7317 58.5497 49.3333 58.2891 49.8489C58.0286 50.3646 57.6647 50.7642 57.1975 51.0479C56.7304 51.3315 56.1823 51.4733 55.5534 51.4733ZM55.2569 50.3646C55.8679 50.3646 56.353 50.1583 56.7124 49.7458C57.0718 49.3333 57.2515 48.7661 57.2515 48.0441C57.2515 47.3308 57.0718 46.7765 56.7124 46.3811C56.353 45.9772 55.8634 45.7752 55.2435 45.7752C54.6325 45.7752 54.1429 45.9815 53.7745 46.394C53.4152 46.798 53.2355 47.3609 53.2355 48.0828C53.2355 48.7876 53.4152 49.3462 53.7745 49.7587C54.1429 50.1626 54.637 50.3646 55.2569 50.3646Z" fill="black"/>
<path d="M60.1527 51.3572V42.0754H61.5542V51.3572H60.1527Z" fill="black"/>
<path d="M66.5136 51.4862C65.8128 51.4862 65.1974 51.3401 64.6673 51.0479C64.1372 50.7471 63.7239 50.3388 63.4275 49.8232C63.131 49.2989 62.9827 48.7059 62.9827 48.0441C62.9827 47.3738 63.131 46.7851 63.4275 46.278C63.7329 45.7709 64.1462 45.3756 64.6673 45.092C65.1974 44.7998 65.8128 44.6537 66.5136 44.6537C67.2233 44.6537 67.8432 44.7998 68.3733 45.092C68.9034 45.3756 69.3122 45.7709 69.5997 46.278C69.8962 46.7851 70.0444 47.3738 70.0444 48.0441C70.0444 48.7059 69.8962 49.2989 69.5997 49.8232C69.3122 50.3388 68.9034 50.7471 68.3733 51.0479C67.8432 51.3401 67.2233 51.4862 66.5136 51.4862ZM66.5136 50.3904C66.9358 50.3904 67.2997 50.2916 67.6052 50.0939C67.9196 49.8962 68.1667 49.6212 68.3464 49.2688C68.5261 48.9165 68.6159 48.5039 68.6159 48.0313C68.6159 47.3265 68.4182 46.7722 68.0229 46.3683C67.6366 45.9557 67.1335 45.7495 66.5136 45.7495C65.9026 45.7495 65.3995 45.9557 65.0042 46.3683C64.6179 46.7808 64.4247 47.3351 64.4247 48.0313C64.4247 48.5039 64.5101 48.9165 64.6808 49.2688C64.8605 49.6212 65.1075 49.8962 65.422 50.0939C65.7454 50.2916 66.1093 50.3904 66.5136 50.3904Z" fill="black"/>
<path d="M71.484 51.3572V44.7826H72.8181V46.4198H72.8855V51.3572H71.484ZM72.8855 47.9281L72.7103 46.3683C72.872 45.8096 73.1505 45.3842 73.5459 45.092C73.9412 44.7998 74.4128 44.6537 74.9609 44.6537C75.1675 44.6537 75.3113 44.6709 75.3921 44.7053V45.9686C75.3472 45.9514 75.2843 45.9428 75.2035 45.9428C75.1226 45.9342 75.0238 45.9299 74.907 45.9299C74.2332 45.9299 73.7255 46.0975 73.3841 46.4327C73.0517 46.7679 72.8855 47.2664 72.8855 47.9281Z" fill="black"/>
<path d="M79.4103 51.4862C78.7185 51.4862 78.1076 51.3401 77.5775 51.0479C77.0564 50.7556 76.6476 50.3517 76.3512 49.8361C76.0547 49.3204 75.9064 48.7274 75.9064 48.057C75.9064 47.3781 76.0502 46.7851 76.3377 46.278C76.6342 45.7624 77.0474 45.3627 77.5775 45.0791C78.1076 44.7955 78.714 44.6537 79.3968 44.6537C80.0617 44.6537 80.6367 44.7912 81.1218 45.0662C81.616 45.3326 81.9933 45.7065 82.2538 46.1878C82.5234 46.6691 82.6581 47.2406 82.6581 47.9023C82.6581 48.0055 82.6537 48.1043 82.6447 48.1988C82.6447 48.2848 82.6357 48.375 82.6177 48.4696H76.8498V47.464H81.6339L81.2835 47.8637C81.2835 47.1589 81.1173 46.6218 80.7849 46.2522C80.4525 45.8827 79.9898 45.6979 79.3968 45.6979C78.759 45.6979 78.2513 45.9085 77.874 46.3296C77.5056 46.7421 77.3215 47.3179 77.3215 48.057C77.3215 48.8047 77.5056 49.3892 77.874 49.8103C78.2513 50.2314 78.7724 50.442 79.4373 50.442C79.8416 50.442 80.192 50.3646 80.4884 50.2099C80.7849 50.0466 81.005 49.8103 81.1488 49.5009H82.4695C82.2449 50.1197 81.863 50.6052 81.324 50.9576C80.7939 51.31 80.156 51.4862 79.4103 51.4862Z" fill="black"/>
<path d="M84.0918 51.3572V44.7826H85.426V46.4198H85.4934V51.3572H84.0918ZM85.4934 47.9281L85.3182 46.3683C85.4799 45.8096 85.7584 45.3842 86.1537 45.092C86.549 44.7998 87.0207 44.6537 87.5687 44.6537C87.7754 44.6537 87.9191 44.6709 88 44.7053V45.9686C87.9551 45.9514 87.8922 45.9428 87.8113 45.9428C87.7304 45.9342 87.6316 45.9299 87.5148 45.9299C86.841 45.9299 86.3334 46.0975 85.992 46.4327C85.6596 46.7679 85.4934 47.2664 85.4934 47.9281Z" fill="black"/>
<path d="M28.2142 39.9382C25.0818 41.7583 25.0845 45.9882 28.2274 47.5547L35.2871 51.0767L35.2739 43.4602C35.2669 40.0792 31.3406 38.1216 28.2142 39.9382ZM31.4855 45.0898C30.539 45.6397 29.3144 45.383 28.7662 44.5198C28.2181 43.6565 28.5444 42.4986 29.4909 41.9487C30.4373 41.3987 31.662 41.6554 32.2101 42.5187C32.7583 43.3819 32.4319 44.5398 31.4855 45.0898Z" fill="black"/>
<path d="M12.2061 28.3943V1L1.00565 18.9675V40.8829L12.2061 28.3943Z" fill="black"/>
<path d="M57.1258 29.6029V1.80572L68.3262 19.308V41.2234L57.1258 29.6029Z" fill="black"/>
<path d="M23.4121 40.9627L22.8523 41.4618C23.1255 41.7682 23.5941 41.7981 23.904 41.5289L23.4121 40.9627ZM34.6351 31.2144L35.1269 31.7806C35.2909 31.6381 35.3851 31.4316 35.3851 31.2144H34.6351ZM34.6351 9.46002H35.3851C35.3851 9.17025 35.2182 8.90641 34.9563 8.7823C34.6945 8.65818 34.3846 8.69601 34.1603 8.87946L34.6351 9.46002ZM23.4121 18.639L22.7791 19.0411C22.8941 19.2222 23.0811 19.3453 23.2929 19.3794C23.5047 19.4135 23.7209 19.3553 23.887 19.2195L23.4121 18.639ZM12.2061 1L12.8391 0.597822C12.7015 0.381212 12.4627 0.25 12.2061 0.25C11.9495 0.25 11.7107 0.381211 11.573 0.597821L12.2061 1ZM1 18.639L0.36695 18.2368C0.290565 18.357 0.25 18.4965 0.25 18.639H1ZM1 40.6024H0.25C0.25 40.9116 0.439746 41.1891 0.727869 41.3013C1.01599 41.4135 1.34343 41.3374 1.55252 41.1096L1 40.6024ZM24.1621 18.6534C24.1621 18.2392 23.8264 17.9034 23.4121 17.9034C22.9979 17.9034 22.6621 18.2392 22.6621 18.6534H24.1621ZM22.6621 35.126C22.6621 35.5402 22.9979 35.876 23.4121 35.876C23.8264 35.876 24.1621 35.5402 24.1621 35.126H22.6621ZM1.00565 18.9675L0.369191 18.5707L0.255655 18.7528V18.9675H1.00565ZM1.00565 40.8829H0.255655V42.8425L1.564 41.3837L1.00565 40.8829ZM45.9197 41.3032L45.4417 41.8811C45.7446 42.1317 46.1895 42.1059 46.4614 41.822L45.9197 41.3032ZM34.6968 32.0201H33.9468C33.9468 32.2436 34.0465 32.4555 34.2188 32.598L34.6968 32.0201ZM34.6968 9.46002L35.182 8.88806C34.9591 8.69905 34.6468 8.65666 34.3817 8.77945C34.1165 8.90223 33.9468 9.16782 33.9468 9.46002H34.6968ZM45.9197 18.9795L45.4346 19.5514C45.5988 19.6907 45.8148 19.7527 46.0278 19.7216C46.2408 19.6906 46.4302 19.5696 46.5479 19.3893L45.9197 18.9795ZM57.1258 1.80572L57.7539 1.39587C57.6154 1.18366 57.3792 1.05572 57.1258 1.05572C56.8724 1.05572 56.6362 1.18366 56.4977 1.39587L57.1258 1.80572ZM68.3319 18.9795H69.0819C69.0819 18.8339 69.0395 18.6915 68.96 18.5696L68.3319 18.9795ZM68.3319 40.9429L67.7984 41.4701C68.0122 41.6864 68.3355 41.7522 68.6168 41.6367C68.8982 41.5211 69.0819 41.2471 69.0819 40.9429H68.3319ZM46.6697 18.9939C46.6697 18.5797 46.334 18.2439 45.9197 18.2439C45.5055 18.2439 45.1697 18.5797 45.1697 18.9939H46.6697ZM45.1697 35.4665C45.1697 35.8807 45.5055 36.2165 45.9197 36.2165C46.334 36.2165 46.6697 35.8807 46.6697 35.4665H45.1697ZM68.3262 19.308H69.0762V19.0885L68.958 18.9037L68.3262 19.308ZM68.3262 41.2234L67.7862 41.7439L69.0762 43.0823V41.2234H68.3262ZM23.904 41.5289L35.1269 31.7806L34.1432 30.6481L22.9203 40.3965L23.904 41.5289ZM35.3851 31.2144V9.46002H33.8851V31.2144H35.3851ZM34.1603 8.87946L22.9373 18.0584L23.887 19.2195L35.1099 10.0406L34.1603 8.87946ZM24.0452 18.2368L12.8391 0.597822L11.573 1.40218L22.7791 19.0411L24.0452 18.2368ZM11.4561 1V28.3943H12.9561V1H11.4561ZM11.573 0.597821L0.36695 18.2368L1.63305 19.0411L12.8391 1.40218L11.573 0.597821ZM0.25 18.639V40.6024H1.75V18.639H0.25ZM1.55252 41.1096L12.7586 28.9015L11.6536 27.8872L0.447481 40.0952L1.55252 41.1096ZM11.6463 28.8935L22.8523 41.4618L23.9719 40.4636L12.7659 27.8952L11.6463 28.8935ZM24.1621 40.9627V18.6534H22.6621V40.9627H24.1621ZM22.6621 18.6534V35.126H24.1621V18.6534H22.6621ZM11.5696 0.603246L0.369191 18.5707L1.64212 19.3642L12.8426 1.39675L11.5696 0.603246ZM0.255655 18.9675V40.8829H1.75565V18.9675H0.255655ZM1.564 41.3837L12.7644 28.8951L11.6478 27.8936L0.447312 40.3822L1.564 41.3837ZM46.3978 40.7253L35.1748 31.4422L34.2188 32.598L45.4417 41.8811L46.3978 40.7253ZM35.4468 32.0201V9.46002H33.9468V32.0201H35.4468ZM34.2117 10.032L45.4346 19.5514L46.4049 18.4075L35.182 8.88806L34.2117 10.032ZM46.5479 19.3893L57.7539 2.21557L56.4977 1.39587L45.2916 18.5696L46.5479 19.3893ZM56.3758 1.80572V29.6029H57.8758V1.80572H56.3758ZM56.4977 2.21557L67.7038 19.3893L68.96 18.5696L57.7539 1.39587L56.4977 2.21557ZM67.5819 18.9795V40.9429H69.0819V18.9795H67.5819ZM68.8654 40.4157L57.6593 29.0757L56.5923 30.1301L67.7984 41.4701L68.8654 40.4157ZM56.5841 29.0842L45.3781 40.7844L46.4614 41.822L57.6674 30.1217L56.5841 29.0842ZM46.6697 41.3032V18.9939H45.1697V41.3032H46.6697ZM45.1697 18.9939V35.4665H46.6697V18.9939H45.1697ZM56.4941 2.20998L67.6945 19.7122L68.958 18.9037L57.7575 1.40145L56.4941 2.20998ZM67.5762 19.308V41.2234H69.0762V19.308H67.5762ZM68.8662 40.703L57.6658 29.0824L56.5858 30.1234L67.7862 41.7439L68.8662 40.703Z" fill="black"/>
</svg>
