<svg width="1487" height="888" viewBox="0 0 1487 888" fill="none" xmlns="http://www.w3.org/2000/svg">
<path d="M599.322 843.771V688.432H623.722V843.771H599.322ZM611.292 843.771V825.001H714.414V843.771H611.292ZM611.292 772.79V754.02H706.127V772.79H611.292ZM611.292 707.202V688.432H712.342V707.202H611.292Z" fill="black"/>
<path d="M819.47 843.771L781.95 793.502L734.302 733.739H761.463L795.761 779.694L846.631 843.771H819.47ZM783.561 779.694L818.549 733.739H844.79L795.531 795.012L783.561 779.694ZM793.229 795.659L755.479 843.771H729.007L781.72 779.91L793.229 795.659Z" fill="black"/>
<path d="M932.798 845.713C921.749 845.713 912.541 843.268 905.176 838.378C897.963 833.344 893.206 826.368 890.904 817.45L894.127 817.018V888H870.188V733.739H892.976V758.982L890.674 758.335C893.129 749.992 898.347 743.448 906.326 738.702C914.306 733.955 923.667 731.582 934.409 731.582C944.997 731.582 954.128 733.955 961.801 738.702C969.627 743.448 975.612 750.064 979.755 758.55C984.052 767.037 986.2 776.961 986.2 788.324C986.2 799.83 983.975 809.899 979.525 818.529C975.075 827.159 968.86 833.847 960.88 838.593C952.9 843.34 943.54 845.713 932.798 845.713ZM927.734 827.159C938.169 827.159 946.455 823.707 952.593 816.803C958.732 809.899 961.801 800.406 961.801 788.324C961.801 776.386 958.732 767.108 952.593 760.492C946.455 753.732 938.092 750.352 927.503 750.352C917.068 750.352 908.705 753.804 902.413 760.708C896.275 767.468 893.206 776.889 893.206 788.971C893.206 800.765 896.275 810.115 902.413 817.018C908.705 823.779 917.145 827.159 927.734 827.159Z" fill="black"/>
<path d="M1011.36 843.771V688.432H1035.29V843.771H1011.36Z" fill="black"/>
<path d="M1120 845.929C1108.03 845.929 1097.52 843.484 1088.47 838.593C1079.41 833.559 1072.35 826.727 1067.29 818.097C1062.23 809.323 1059.69 799.399 1059.69 788.324C1059.69 777.105 1062.23 767.252 1067.29 758.766C1072.51 750.28 1079.57 743.664 1088.47 738.917C1097.52 734.027 1108.03 731.582 1120 731.582C1132.13 731.582 1142.71 734.027 1151.77 738.917C1160.82 743.664 1167.8 750.28 1172.71 758.766C1177.78 767.252 1180.31 777.105 1180.31 788.324C1180.31 799.399 1177.78 809.323 1172.71 818.097C1167.8 826.727 1160.82 833.559 1151.77 838.593C1142.71 843.484 1132.13 845.929 1120 845.929ZM1120 827.59C1127.21 827.59 1133.43 825.936 1138.65 822.628C1144.02 819.32 1148.24 814.717 1151.31 808.82C1154.38 802.923 1155.91 796.019 1155.91 788.108C1155.91 776.314 1152.53 767.037 1145.78 760.276C1139.18 753.372 1130.59 749.92 1120 749.92C1109.57 749.92 1100.97 753.372 1094.22 760.276C1087.62 767.18 1084.32 776.458 1084.32 788.108C1084.32 796.019 1085.78 802.923 1088.7 808.82C1091.77 814.717 1095.99 819.32 1101.36 822.628C1106.88 825.936 1113.1 827.59 1120 827.59Z" fill="black"/>
<path d="M1204.9 843.771V733.739H1227.69V761.139H1228.84V843.771H1204.9ZM1228.84 786.382L1225.85 760.276C1228.61 750.927 1233.36 743.808 1240.12 738.917C1246.87 734.027 1254.93 731.582 1264.29 731.582C1267.82 731.582 1270.27 731.869 1271.65 732.445V753.588C1270.88 753.301 1269.81 753.157 1268.43 753.157C1267.05 753.013 1265.36 752.941 1263.37 752.941C1251.86 752.941 1243.19 755.746 1237.35 761.355C1231.68 766.965 1228.84 775.307 1228.84 786.382Z" fill="black"/>
<path d="M1340.28 845.929C1328.47 845.929 1318.03 843.484 1308.98 838.593C1300.08 833.703 1293.1 826.943 1288.03 818.313C1282.97 809.683 1280.44 799.759 1280.44 788.54C1280.44 777.177 1282.89 767.252 1287.8 758.766C1292.87 750.136 1299.93 743.448 1308.98 738.702C1318.03 733.955 1328.39 731.582 1340.05 731.582C1351.41 731.582 1361.23 733.883 1369.52 738.486C1377.96 742.945 1384.4 749.201 1388.85 757.256C1393.46 765.311 1395.76 774.875 1395.76 785.951C1395.76 787.677 1395.68 789.331 1395.53 790.913C1395.53 792.351 1395.38 793.861 1395.07 795.444H1296.55V778.615H1378.26L1372.28 785.303C1372.28 773.509 1369.44 764.519 1363.76 758.335C1358.09 752.15 1350.18 749.057 1340.05 749.057C1329.16 749.057 1320.49 752.581 1314.04 759.629C1307.75 766.533 1304.61 776.17 1304.61 788.54C1304.61 801.053 1307.75 810.834 1314.04 817.881C1320.49 824.929 1329.39 828.453 1340.74 828.453C1347.65 828.453 1353.64 827.159 1358.7 824.57C1363.76 821.837 1367.52 817.881 1369.98 812.703H1392.54C1388.7 823.059 1382.18 831.186 1372.97 837.083C1363.92 842.98 1353.02 845.929 1340.28 845.929Z" fill="black"/>
<path d="M1420.25 843.771V733.739H1443.03V761.139H1444.19V843.771H1420.25ZM1444.19 786.382L1441.19 760.276C1443.96 750.927 1448.71 743.808 1455.46 738.917C1462.22 734.027 1470.27 731.582 1479.63 731.582C1483.16 731.582 1485.62 731.869 1487 732.445V753.588C1486.23 753.301 1485.16 753.157 1483.78 753.157C1482.4 753.013 1480.71 752.941 1478.71 752.941C1467.2 752.941 1458.53 755.746 1452.7 761.355C1447.02 766.965 1444.19 775.307 1444.19 786.382Z" fill="black"/>
<path d="M465.832 652.664C412.328 683.125 412.374 753.916 466.057 780.132L586.64 839.077L586.415 711.609C586.295 655.024 519.231 622.262 465.832 652.664ZM521.706 738.88C505.54 748.084 484.623 743.788 475.26 729.341C465.898 714.894 471.472 695.515 487.638 686.311C503.803 677.108 524.72 681.404 534.083 695.851C543.446 710.298 537.871 729.676 521.706 738.88Z" fill="black"/>
<path d="M192.405 459.467V1L1.09659 301.701V668.474L192.405 459.467Z" fill="black"/>
<path d="M959.655 479.694V14.4843L1150.96 307.399V674.173L959.655 479.694Z" fill="black"/>
<path d="M383.81 669.809L383.255 670.314C383.527 670.613 383.988 670.643 384.296 670.38L383.81 669.809ZM575.503 506.662L575.989 507.233C576.156 507.091 576.253 506.882 576.253 506.662H575.503ZM575.503 142.585H576.253C576.253 142.297 576.087 142.034 575.827 141.909C575.567 141.785 575.259 141.82 575.034 142L575.503 142.585ZM383.81 296.203L383.18 296.611C383.296 296.789 383.481 296.909 383.69 296.943C383.9 296.977 384.113 296.921 384.279 296.788L383.81 296.203ZM192.405 1L193.035 0.591974C192.896 0.378719 192.659 0.25 192.405 0.25C192.151 0.25 191.914 0.378718 191.776 0.591973L192.405 1ZM1 296.203L0.370704 295.795C0.291922 295.916 0.25 296.058 0.25 296.203H1ZM1 663.779H0.25C0.25 664.087 0.438066 664.364 0.724321 664.477C1.01058 664.59 1.3369 664.517 1.54734 664.292L1 663.779ZM384.56 296.444C384.56 296.03 384.224 295.694 383.81 295.694C383.396 295.694 383.06 296.03 383.06 296.444H384.56ZM383.06 572.127C383.06 572.541 383.396 572.877 383.81 572.877C384.224 572.877 384.56 572.541 384.56 572.127H383.06ZM1.09659 301.701L0.463799 301.298L0.346589 301.482V301.701H1.09659ZM1.09659 668.474H0.346589V670.404L1.64983 668.981L1.09659 668.474ZM768.25 675.508L767.778 676.09C768.079 676.334 768.516 676.309 768.787 676.032L768.25 675.508ZM576.557 520.147H575.807C575.807 520.373 575.909 520.587 576.085 520.729L576.557 520.147ZM576.557 142.585L577.037 142.009C576.813 141.823 576.502 141.783 576.239 141.906C575.975 142.03 575.807 142.295 575.807 142.585H576.557ZM768.25 301.901L767.771 302.478C767.934 302.614 768.148 302.674 768.358 302.643C768.569 302.613 768.757 302.494 768.874 302.317L768.25 301.901ZM959.655 14.4843L960.279 14.0686C960.14 13.8598 959.906 13.7343 959.655 13.7343C959.404 13.7343 959.169 13.8598 959.03 14.0686L959.655 14.4843ZM1151.06 301.901H1151.81C1151.81 301.753 1151.77 301.609 1151.68 301.486L1151.06 301.901ZM1151.06 669.478L1150.53 670.011C1150.75 670.224 1151.07 670.287 1151.35 670.17C1151.63 670.054 1151.81 669.781 1151.81 669.478H1151.06ZM769 302.143C769 301.728 768.664 301.393 768.25 301.393C767.836 301.393 767.5 301.728 767.5 302.143H769ZM767.5 577.825C767.5 578.239 767.836 578.575 768.25 578.575C768.664 578.575 769 578.239 769 577.825H767.5ZM1150.96 307.399H1151.71V307.176L1151.59 306.989L1150.96 307.399ZM1150.96 674.173L1150.43 674.699L1151.71 676.005V674.173H1150.96ZM384.296 670.38L575.989 507.233L575.017 506.091L383.324 669.238L384.296 670.38ZM576.253 506.662V142.585H574.753V506.662H576.253ZM575.034 142L383.341 295.617L384.279 296.788L575.972 143.171L575.034 142ZM384.439 295.795L193.035 0.591974L191.776 1.40803L383.18 296.611L384.439 295.795ZM191.655 1V459.467H193.155V1H191.655ZM191.776 0.591973L0.370704 295.795L1.6293 296.611L193.035 1.40803L191.776 0.591973ZM0.25 296.203V663.779H1.75V296.203H0.25ZM1.54734 664.292L192.953 459.98L191.858 458.954L0.452663 663.267L1.54734 664.292ZM191.851 459.972L383.255 670.314L384.364 669.304L192.96 458.962L191.851 459.972ZM384.56 669.809V296.444H383.06V669.809H384.56ZM383.06 296.444V572.127H384.56V296.444H383.06ZM191.773 0.597412L0.463799 301.298L1.72938 302.103L193.038 1.40259L191.773 0.597412ZM0.346589 301.701V668.474H1.84659V301.701H0.346589ZM1.64983 668.981L192.959 459.974L191.852 458.961L0.543353 667.968L1.64983 668.981ZM768.722 674.925L577.029 519.564L576.085 520.729L767.778 676.09L768.722 674.925ZM577.307 520.147V142.585H575.807V520.147H577.307ZM576.078 143.162L767.771 302.478L768.73 301.324L577.037 142.009L576.078 143.162ZM768.874 302.317L960.279 14.9L959.03 14.0686L767.626 301.486L768.874 302.317ZM958.905 14.4843V479.694H960.405V14.4843H958.905ZM959.03 14.9L1150.44 302.317L1151.68 301.486L960.279 14.0686L959.03 14.9ZM1150.31 301.901V669.478H1151.81V301.901H1150.31ZM1151.59 668.945L960.183 479.161L959.127 480.226L1150.53 670.011L1151.59 668.945ZM959.118 479.169L767.714 674.984L768.787 676.032L960.191 480.218L959.118 479.169ZM769 675.508V302.143H767.5V675.508H769ZM767.5 302.143V577.825H769V302.143H767.5ZM959.027 14.8944L1150.34 307.809L1151.59 306.989L960.283 14.0742L959.027 14.8944ZM1150.21 307.399V674.173H1151.71V307.399H1150.21ZM1151.5 673.647L960.189 479.168L959.12 480.22L1150.43 674.699L1151.5 673.647Z" fill="black"/>
</svg>
