<svg title ="FavouritesGuestIcon" width="38" height="36" viewBox="0 0 38 36" fill="none" xmlns="http://www.w3.org/2000/svg">
<path d="M5.58969 3.7045C5.12594 3.26517 4.37406 3.26517 3.91031 3.7045C3.44656 4.14384 3.44656 4.85616 3.91031 5.2955L32.4103 32.2955C32.8741 32.7348 33.6259 32.7348 34.0897 32.2955C34.5534 31.8562 34.5534 31.1438 34.0897 30.7045L5.58969 3.7045Z" fill="black"/>
<path d="M32.0625 8.26048V25.602L9.26699 4.00629C9.50505 3.94144 9.75215 3.89414 10.007 3.86611C12.9576 3.54171 15.9585 3.375 19 3.375C22.0415 3.375 25.0424 3.54171 27.993 3.86611C30.3638 4.12678 32.0625 6.05583 32.0625 8.26048Z" fill="black"/>
<path d="M5.9375 31.5V10.398L28.2041 31.4926L19 27.1328L7.65607 32.5062C7.28795 32.6806 6.85079 32.662 6.50069 32.457C6.1506 32.252 5.9375 31.8899 5.9375 31.5Z" fill="black"/>
</svg>
